<svg width="167" height="43" viewBox="0 0 167 43" fill="none" xmlns="http://www.w3.org/2000/svg">
<path d="M119.098 3.508C119.182 3.62 119.233 3.75067 119.252 3.9C119.252 3.956 119.247 4.012 119.238 4.068C119.238 4.11467 119.233 4.16133 119.224 4.208C119.215 4.31067 119.154 4.40867 119.042 4.502C118.977 4.54867 118.893 4.59533 118.79 4.642C118.734 4.66067 118.673 4.67467 118.608 4.684C118.552 4.684 118.487 4.68867 118.412 4.698C118.356 4.71667 118.295 4.726 118.23 4.726C118.165 4.726 118.099 4.726 118.034 4.726H117.404L114.478 4.74V4.782L114.464 7.064C114.539 7.064 114.618 7.064 114.702 7.064C114.795 7.064 114.907 7.05933 115.038 7.05C115.411 7.05 115.743 7.05 116.032 7.05C116.331 7.05 116.657 7.05467 117.012 7.064H117.096C117.199 7.064 117.301 7.06867 117.404 7.078C117.516 7.078 117.628 7.078 117.74 7.078C117.843 7.08733 117.945 7.10133 118.048 7.12C118.151 7.12933 118.253 7.15267 118.356 7.19C118.524 7.246 118.645 7.33467 118.72 7.456C118.823 7.57733 118.874 7.70333 118.874 7.834C118.874 7.89 118.874 7.946 118.874 8.002C118.874 8.04867 118.865 8.1 118.846 8.156C118.837 8.23067 118.776 8.324 118.664 8.436C118.589 8.50133 118.501 8.54333 118.398 8.562C118.351 8.58067 118.295 8.59933 118.23 8.618C118.174 8.62733 118.113 8.63667 118.048 8.646C117.983 8.65533 117.917 8.66467 117.852 8.674C117.796 8.674 117.731 8.674 117.656 8.674H117.012L114.436 8.688L114.394 11.936V12.048C114.394 12.0947 114.389 12.1413 114.38 12.188C114.38 12.2253 114.375 12.2673 114.366 12.314C114.347 12.3607 114.329 12.412 114.31 12.468C114.301 12.5147 114.287 12.5613 114.268 12.608C114.203 12.7387 114.142 12.8273 114.086 12.874C113.983 12.9487 113.857 13 113.708 13.028C113.456 13.084 113.218 13.056 112.994 12.944C112.947 12.916 112.901 12.8833 112.854 12.846C112.817 12.7993 112.784 12.7433 112.756 12.678C112.737 12.6407 112.728 12.6127 112.728 12.594L112.686 12.51C112.658 12.4633 112.639 12.4167 112.63 12.37C112.621 12.314 112.611 12.2627 112.602 12.216C112.602 12.1693 112.597 12.1227 112.588 12.076C112.588 12.0293 112.583 11.9827 112.574 11.936C112.565 11.8613 112.565 11.7867 112.574 11.712V11.488L112.588 10.396L112.602 8.38C112.611 8.08133 112.616 7.778 112.616 7.47C112.616 7.162 112.616 6.84467 112.616 6.518C112.607 6.182 112.602 5.88333 112.602 5.622C112.611 5.36067 112.625 5.076 112.644 4.768V4.698C112.653 4.59533 112.658 4.502 112.658 4.418C112.658 4.32467 112.667 4.23133 112.686 4.138C112.705 3.93267 112.751 3.75067 112.826 3.592C112.891 3.43333 112.985 3.32133 113.106 3.256C113.246 3.172 113.395 3.13 113.554 3.13C113.629 3.13 113.689 3.13467 113.736 3.144V3.13C113.904 3.13 114.039 3.13 114.142 3.13C114.245 3.13 114.343 3.13 114.436 3.13C114.529 3.13 114.632 3.13 114.744 3.13C114.856 3.12067 115.005 3.116 115.192 3.116C115.939 3.10667 116.676 3.10667 117.404 3.116H117.474C117.577 3.12533 117.679 3.13 117.782 3.13C117.894 3.13 118.006 3.13467 118.118 3.144C118.221 3.144 118.323 3.158 118.426 3.186C118.529 3.20467 118.631 3.23267 118.734 3.27C118.893 3.31667 119.014 3.396 119.098 3.508ZM121.939 7.694C121.939 7.95533 121.939 8.24933 121.939 8.576C121.949 8.90267 121.953 9.24333 121.953 9.598C121.953 9.94333 121.953 10.2887 121.953 10.634C121.953 10.97 121.949 11.2827 121.939 11.572C121.93 11.712 121.916 11.866 121.897 12.034C121.879 12.1927 121.841 12.342 121.785 12.482C121.729 12.622 121.641 12.7387 121.519 12.832C121.407 12.916 121.253 12.9533 121.057 12.944C120.768 12.9253 120.558 12.7993 120.427 12.566C120.306 12.3327 120.236 12.006 120.217 11.586C120.217 11.3713 120.213 11.124 120.203 10.844C120.203 10.564 120.199 10.2793 120.189 9.99C120.189 9.70067 120.189 9.42067 120.189 9.15C120.189 8.87 120.189 8.618 120.189 8.394C120.189 8.26333 120.185 8.10467 120.175 7.918C120.175 7.73133 120.18 7.54 120.189 7.344C120.199 7.148 120.222 6.96133 120.259 6.784C120.297 6.59733 120.357 6.44333 120.441 6.322C120.507 6.24733 120.6 6.19133 120.721 6.154C120.843 6.10733 120.969 6.084 121.099 6.084C121.239 6.084 121.37 6.10733 121.491 6.154C121.622 6.20067 121.715 6.266 121.771 6.35C121.809 6.406 121.837 6.48533 121.855 6.588C121.874 6.69067 121.888 6.80733 121.897 6.938C121.916 7.05933 121.925 7.19 121.925 7.33C121.935 7.46067 121.939 7.582 121.939 7.694ZM121.407 4.866C121.118 4.94067 120.875 4.91267 120.679 4.782C120.493 4.642 120.376 4.43667 120.329 4.166C120.292 3.97 120.306 3.79733 120.371 3.648C120.437 3.49867 120.535 3.38667 120.665 3.312C120.796 3.228 120.945 3.19067 121.113 3.2C121.281 3.20933 121.449 3.27467 121.617 3.396C121.776 3.508 121.888 3.63867 121.953 3.788C122.028 3.93733 122.051 4.082 122.023 4.222C122.005 4.362 121.944 4.49267 121.841 4.614C121.739 4.726 121.594 4.81 121.407 4.866ZM123.334 8.002C123.334 7.78733 123.329 7.55867 123.32 7.316C123.32 7.07333 123.362 6.854 123.446 6.658C123.52 6.48067 123.642 6.35467 123.81 6.28C123.987 6.196 124.16 6.17733 124.328 6.224C124.496 6.252 124.626 6.30333 124.72 6.378C124.813 6.45267 124.878 6.54133 124.916 6.644C124.962 6.73733 124.99 6.84933 125 6.98C125.009 7.10133 125.018 7.22267 125.028 7.344C125.121 7.176 125.238 7.04067 125.378 6.938C125.518 6.83533 125.662 6.75133 125.812 6.686C125.961 6.62067 126.101 6.574 126.232 6.546C126.372 6.518 126.479 6.504 126.554 6.504C126.908 6.504 127.258 6.58333 127.604 6.742C127.958 6.89133 128.252 7.106 128.486 7.386C128.616 7.554 128.714 7.73133 128.78 7.918C128.854 8.09533 128.906 8.282 128.934 8.478C128.971 8.674 128.994 8.87467 129.004 9.08C129.013 9.276 129.022 9.47667 129.032 9.682C129.078 10.2793 129.078 10.872 129.032 11.46C129.022 11.5813 129.018 11.7213 129.018 11.88C129.018 12.0387 129.004 12.1973 128.976 12.356C128.957 12.5053 128.915 12.6407 128.85 12.762C128.794 12.874 128.696 12.944 128.556 12.972C128.36 13.0187 128.196 13.028 128.066 13C127.944 12.9813 127.846 12.9393 127.772 12.874C127.697 12.8087 127.641 12.7247 127.604 12.622C127.566 12.5193 127.534 12.4027 127.506 12.272C127.487 12.1693 127.468 12.0527 127.45 11.922C127.44 11.782 127.431 11.642 127.422 11.502C127.422 11.362 127.417 11.2267 127.408 11.096C127.408 10.956 127.408 10.83 127.408 10.718C127.408 10.5407 127.403 10.3447 127.394 10.13C127.384 9.91533 127.384 9.71467 127.394 9.528C127.394 9.08933 127.277 8.758 127.044 8.534C126.82 8.30067 126.512 8.20267 126.12 8.24C125.821 8.27733 125.56 8.39867 125.336 8.604C125.112 8.8 125.004 9.05667 125.014 9.374C125.014 9.49533 125.014 9.60733 125.014 9.71C125.014 9.81267 125.009 9.91533 125 10.018C125 10.1207 125 10.2327 125 10.354C125 10.4753 125 10.6107 125 10.76C125 11.068 125 11.3947 125 11.74C125 12.076 124.958 12.3513 124.874 12.566C124.799 12.79 124.673 12.944 124.496 13.028C124.318 13.112 124.108 13.0887 123.866 12.958C123.763 12.902 123.679 12.8273 123.614 12.734C123.558 12.6313 123.511 12.524 123.474 12.412C123.446 12.3 123.427 12.188 123.418 12.076C123.408 11.9547 123.399 11.8427 123.39 11.74C123.362 11.432 123.343 11.1473 123.334 10.886C123.334 10.6153 123.334 10.326 123.334 10.018V8.002ZM131.835 7.106C132.115 6.966 132.409 6.868 132.717 6.812C133.025 6.74667 133.328 6.73267 133.627 6.77C133.935 6.798 134.229 6.87733 134.509 7.008C134.789 7.12933 135.05 7.30667 135.293 7.54C135.535 7.78267 135.722 8.04867 135.853 8.338C135.983 8.62733 136.077 8.94933 136.133 9.304C136.17 9.54667 136.231 9.77067 136.315 9.976C136.399 10.1813 136.487 10.3867 136.581 10.592C136.683 10.7973 136.777 11.0027 136.861 11.208C136.954 11.4133 137.029 11.628 137.085 11.852C137.131 12.0667 137.113 12.2767 137.029 12.482C136.954 12.678 136.795 12.7993 136.553 12.846C136.413 12.874 136.277 12.8647 136.147 12.818C136.025 12.762 135.913 12.6873 135.811 12.594C135.708 12.4913 135.615 12.384 135.531 12.272C135.456 12.1507 135.386 12.0387 135.321 11.936C135.106 12.216 134.873 12.4353 134.621 12.594C134.369 12.7433 134.065 12.8413 133.711 12.888C133.412 12.9253 133.127 12.9347 132.857 12.916C132.586 12.8973 132.297 12.846 131.989 12.762C131.587 12.6593 131.256 12.482 130.995 12.23C130.743 11.9687 130.547 11.67 130.407 11.334C130.276 10.9887 130.206 10.62 130.197 10.228C130.187 9.836 130.234 9.44867 130.337 9.066C130.467 8.562 130.663 8.15133 130.925 7.834C131.186 7.51667 131.489 7.274 131.835 7.106ZM132.185 8.744C132.054 8.87467 131.951 9.02867 131.877 9.206C131.802 9.38333 131.755 9.57 131.737 9.766C131.727 9.962 131.746 10.158 131.793 10.354C131.839 10.55 131.914 10.7227 132.017 10.872C132.11 11.0027 132.269 11.1147 132.493 11.208C132.717 11.292 132.95 11.3433 133.193 11.362C133.473 11.3807 133.715 11.306 133.921 11.138C134.135 10.97 134.294 10.76 134.397 10.508C134.509 10.2467 134.56 9.97133 134.551 9.682C134.541 9.38333 134.462 9.11267 134.313 8.87C134.201 8.69267 134.051 8.562 133.865 8.478C133.687 8.394 133.496 8.352 133.291 8.352C133.085 8.34267 132.88 8.37533 132.675 8.45C132.479 8.51533 132.315 8.61333 132.185 8.744ZM138.263 8.002C138.263 7.78733 138.259 7.55867 138.249 7.316C138.249 7.07333 138.291 6.854 138.375 6.658C138.45 6.48067 138.571 6.35467 138.739 6.28C138.917 6.196 139.089 6.17733 139.257 6.224C139.425 6.252 139.556 6.30333 139.649 6.378C139.743 6.45267 139.808 6.54133 139.845 6.644C139.892 6.73733 139.92 6.84933 139.929 6.98C139.939 7.10133 139.948 7.22267 139.957 7.344C140.051 7.176 140.167 7.04067 140.307 6.938C140.447 6.83533 140.592 6.75133 140.741 6.686C140.891 6.62067 141.031 6.574 141.161 6.546C141.301 6.518 141.409 6.504 141.483 6.504C141.838 6.504 142.188 6.58333 142.533 6.742C142.888 6.89133 143.182 7.106 143.415 7.386C143.546 7.554 143.644 7.73133 143.709 7.918C143.784 8.09533 143.835 8.282 143.863 8.478C143.901 8.674 143.924 8.87467 143.933 9.08C143.943 9.276 143.952 9.47667 143.961 9.682C144.008 10.2793 144.008 10.872 143.961 11.46C143.952 11.5813 143.947 11.7213 143.947 11.88C143.947 12.0387 143.933 12.1973 143.905 12.356C143.887 12.5053 143.845 12.6407 143.779 12.762C143.723 12.874 143.625 12.944 143.485 12.972C143.289 13.0187 143.126 13.028 142.995 13C142.874 12.9813 142.776 12.9393 142.701 12.874C142.627 12.8087 142.571 12.7247 142.533 12.622C142.496 12.5193 142.463 12.4027 142.435 12.272C142.417 12.1693 142.398 12.0527 142.379 11.922C142.37 11.782 142.361 11.642 142.351 11.502C142.351 11.362 142.347 11.2267 142.337 11.096C142.337 10.956 142.337 10.83 142.337 10.718C142.337 10.5407 142.333 10.3447 142.323 10.13C142.314 9.91533 142.314 9.71467 142.323 9.528C142.323 9.08933 142.207 8.758 141.973 8.534C141.749 8.30067 141.441 8.20267 141.049 8.24C140.751 8.27733 140.489 8.39867 140.265 8.604C140.041 8.8 139.934 9.05667 139.943 9.374C139.943 9.49533 139.943 9.60733 139.943 9.71C139.943 9.81267 139.939 9.91533 139.929 10.018C139.929 10.1207 139.929 10.2327 139.929 10.354C139.929 10.4753 139.929 10.6107 139.929 10.76C139.929 11.068 139.929 11.3947 139.929 11.74C139.929 12.076 139.887 12.3513 139.803 12.566C139.729 12.79 139.603 12.944 139.425 13.028C139.248 13.112 139.038 13.0887 138.795 12.958C138.693 12.902 138.609 12.8273 138.543 12.734C138.487 12.6313 138.441 12.524 138.403 12.412C138.375 12.3 138.357 12.188 138.347 12.076C138.338 11.9547 138.329 11.8427 138.319 11.74C138.291 11.432 138.273 11.1473 138.263 10.886C138.263 10.6153 138.263 10.326 138.263 10.018V8.002ZM150.334 7.61C150.409 7.74067 150.446 7.88067 150.446 8.03C150.456 8.17933 150.423 8.31933 150.348 8.45C150.264 8.618 150.143 8.73467 149.984 8.8C149.835 8.856 149.667 8.86067 149.48 8.814C149.396 8.79533 149.322 8.76267 149.256 8.716C149.191 8.66933 149.121 8.62267 149.046 8.576C148.981 8.52 148.902 8.46867 148.808 8.422C148.724 8.37533 148.612 8.34267 148.472 8.324C148.332 8.30533 148.178 8.30533 148.01 8.324C147.852 8.34267 147.707 8.38 147.576 8.436C147.371 8.53867 147.208 8.69733 147.086 8.912C146.965 9.11733 146.886 9.34133 146.848 9.584C146.811 9.81733 146.816 10.0553 146.862 10.298C146.918 10.5407 147.021 10.746 147.17 10.914C147.282 11.0447 147.427 11.152 147.604 11.236C147.791 11.32 147.968 11.3713 148.136 11.39C148.295 11.4087 148.454 11.4087 148.612 11.39C148.771 11.362 148.925 11.3247 149.074 11.278C149.186 11.2313 149.312 11.1707 149.452 11.096C149.592 11.012 149.728 10.9607 149.858 10.942C150.026 10.942 150.157 10.9887 150.25 11.082C150.344 11.166 150.409 11.2733 150.446 11.404C150.484 11.5253 150.488 11.656 150.46 11.796C150.442 11.936 150.39 12.0573 150.306 12.16C150.194 12.3 150.036 12.4353 149.83 12.566C149.625 12.6873 149.429 12.776 149.242 12.832C149.018 12.9067 148.766 12.9487 148.486 12.958C148.216 12.9673 147.959 12.958 147.716 12.93C147.604 12.9113 147.488 12.888 147.366 12.86C147.245 12.832 147.128 12.7993 147.016 12.762C146.606 12.6127 146.26 12.4027 145.98 12.132C145.71 11.852 145.5 11.5393 145.35 11.194C145.21 10.8487 145.131 10.48 145.112 10.088C145.094 9.696 145.14 9.30867 145.252 8.926C145.355 8.562 145.481 8.254 145.63 8.002C145.789 7.75 145.971 7.54467 146.176 7.386C146.391 7.218 146.629 7.08733 146.89 6.994C147.152 6.89133 147.441 6.80267 147.758 6.728C148.085 6.66267 148.43 6.66267 148.794 6.728C149.158 6.79333 149.485 6.91467 149.774 7.092C149.998 7.21333 150.185 7.386 150.334 7.61ZM153.357 7.694C153.357 7.95533 153.357 8.24933 153.357 8.576C153.367 8.90267 153.371 9.24333 153.371 9.598C153.371 9.94333 153.371 10.2887 153.371 10.634C153.371 10.97 153.367 11.2827 153.357 11.572C153.348 11.712 153.334 11.866 153.315 12.034C153.297 12.1927 153.259 12.342 153.203 12.482C153.147 12.622 153.059 12.7387 152.937 12.832C152.825 12.916 152.671 12.9533 152.475 12.944C152.186 12.9253 151.976 12.7993 151.845 12.566C151.724 12.3327 151.654 12.006 151.635 11.586C151.635 11.3713 151.631 11.124 151.621 10.844C151.621 10.564 151.617 10.2793 151.607 9.99C151.607 9.70067 151.607 9.42067 151.607 9.15C151.607 8.87 151.607 8.618 151.607 8.394C151.607 8.26333 151.603 8.10467 151.593 7.918C151.593 7.73133 151.598 7.54 151.607 7.344C151.617 7.148 151.64 6.96133 151.677 6.784C151.715 6.59733 151.775 6.44333 151.859 6.322C151.925 6.24733 152.018 6.19133 152.139 6.154C152.261 6.10733 152.387 6.084 152.517 6.084C152.657 6.084 152.788 6.10733 152.909 6.154C153.04 6.20067 153.133 6.266 153.189 6.35C153.227 6.406 153.255 6.48533 153.273 6.588C153.292 6.69067 153.306 6.80733 153.315 6.938C153.334 7.05933 153.343 7.19 153.343 7.33C153.353 7.46067 153.357 7.582 153.357 7.694ZM152.825 4.866C152.536 4.94067 152.293 4.91267 152.097 4.782C151.911 4.642 151.794 4.43667 151.747 4.166C151.71 3.97 151.724 3.79733 151.789 3.648C151.855 3.49867 151.953 3.38667 152.083 3.312C152.214 3.228 152.363 3.19067 152.531 3.2C152.699 3.20933 152.867 3.27467 153.035 3.396C153.194 3.508 153.306 3.63867 153.371 3.788C153.446 3.93733 153.469 4.082 153.441 4.222C153.423 4.362 153.362 4.49267 153.259 4.614C153.157 4.726 153.012 4.81 152.825 4.866ZM156.225 7.106C156.505 6.966 156.799 6.868 157.107 6.812C157.415 6.74667 157.719 6.73267 158.017 6.77C158.325 6.798 158.619 6.87733 158.899 7.008C159.179 7.12933 159.441 7.30667 159.683 7.54C159.926 7.78267 160.113 8.04867 160.243 8.338C160.374 8.62733 160.467 8.94933 160.523 9.304C160.561 9.54667 160.621 9.77067 160.705 9.976C160.789 10.1813 160.878 10.3867 160.971 10.592C161.074 10.7973 161.167 11.0027 161.251 11.208C161.345 11.4133 161.419 11.628 161.475 11.852C161.522 12.0667 161.503 12.2767 161.419 12.482C161.345 12.678 161.186 12.7993 160.943 12.846C160.803 12.874 160.668 12.8647 160.537 12.818C160.416 12.762 160.304 12.6873 160.201 12.594C160.099 12.4913 160.005 12.384 159.921 12.272C159.847 12.1507 159.777 12.0387 159.711 11.936C159.497 12.216 159.263 12.4353 159.011 12.594C158.759 12.7433 158.456 12.8413 158.101 12.888C157.803 12.9253 157.518 12.9347 157.247 12.916C156.977 12.8973 156.687 12.846 156.379 12.762C155.978 12.6593 155.647 12.482 155.385 12.23C155.133 11.9687 154.937 11.67 154.797 11.334C154.667 10.9887 154.597 10.62 154.587 10.228C154.578 9.836 154.625 9.44867 154.727 9.066C154.858 8.562 155.054 8.15133 155.315 7.834C155.577 7.51667 155.88 7.274 156.225 7.106ZM156.575 8.744C156.445 8.87467 156.342 9.02867 156.267 9.206C156.193 9.38333 156.146 9.57 156.127 9.766C156.118 9.962 156.137 10.158 156.183 10.354C156.23 10.55 156.305 10.7227 156.407 10.872C156.501 11.0027 156.659 11.1147 156.883 11.208C157.107 11.292 157.341 11.3433 157.583 11.362C157.863 11.3807 158.106 11.306 158.311 11.138C158.526 10.97 158.685 10.76 158.787 10.508C158.899 10.2467 158.951 9.97133 158.941 9.682C158.932 9.38333 158.853 9.11267 158.703 8.87C158.591 8.69267 158.442 8.562 158.255 8.478C158.078 8.394 157.887 8.352 157.681 8.352C157.476 8.34267 157.271 8.37533 157.065 8.45C156.869 8.51533 156.706 8.61333 156.575 8.744ZM164.502 11.88C164.493 11.9267 164.483 11.9733 164.474 12.02C164.474 12.0573 164.474 12.0993 164.474 12.146L164.39 12.44C164.371 12.4773 164.357 12.5007 164.348 12.51L164.306 12.594C164.259 12.6967 164.175 12.7807 164.054 12.846C163.83 12.958 163.592 12.986 163.34 12.93C163.181 12.9113 163.055 12.8647 162.962 12.79C162.869 12.7247 162.803 12.6453 162.766 12.552C162.729 12.4587 162.701 12.3653 162.682 12.272C162.654 12.1787 162.64 12.0947 162.64 12.02V4.18C162.64 4.11467 162.64 4.05867 162.64 4.012C162.649 3.956 162.659 3.90467 162.668 3.858C162.677 3.79267 162.687 3.73667 162.696 3.69C162.715 3.64333 162.733 3.592 162.752 3.536C162.78 3.44267 162.831 3.368 162.906 3.312C163.018 3.228 163.125 3.18133 163.228 3.172C163.293 3.15333 163.354 3.144 163.41 3.144C163.466 3.13467 163.531 3.13 163.606 3.13C163.737 3.13 163.886 3.16733 164.054 3.242C164.185 3.31667 164.278 3.41933 164.334 3.55C164.427 3.73667 164.474 3.90933 164.474 4.068C164.483 4.16133 164.488 4.30133 164.488 4.488C164.497 4.67467 164.502 4.81467 164.502 4.908V4.964C164.521 5.26267 164.53 5.552 164.53 5.832C164.53 6.10267 164.525 6.40133 164.516 6.728C164.516 7.04533 164.511 7.35333 164.502 7.652C164.502 7.94133 164.502 8.23067 164.502 8.52V11.46C164.502 11.4973 164.502 11.5347 164.502 11.572C164.511 11.6 164.516 11.6327 164.516 11.67C164.516 11.7633 164.511 11.8333 164.502 11.88Z" fill="#EE8002"/>
<path d="M2.272 29.608L2.304 27.08L2.336 22.376C2.35733 21.6933 2.368 20.9893 2.368 20.264C2.368 19.5387 2.368 18.792 2.368 18.024C2.368 17.256 2.368 16.5733 2.368 15.976C2.368 15.3787 2.38933 14.7067 2.432 13.96V13.832C2.45333 13.6187 2.464 13.4053 2.464 13.192C2.48533 12.9573 2.496 12.7227 2.496 12.488C2.51733 12.104 2.63467 11.688 2.848 11.24C2.99733 10.9413 3.22133 10.6853 3.52 10.472C3.86133 10.3013 4.192 10.216 4.512 10.216C4.68267 10.216 4.832 10.2267 4.96 10.248C5.10933 10.248 5.248 10.2587 5.376 10.28C5.65333 10.3227 5.89867 10.4507 6.112 10.664C6.24 10.7707 6.35733 10.9413 6.464 11.176C6.50667 11.304 6.53867 11.432 6.56 11.56C6.60267 11.6667 6.63467 11.784 6.656 11.912C6.67733 12.0613 6.688 12.2 6.688 12.328C6.70933 12.456 6.72 12.584 6.72 12.712C6.72 12.8613 6.70933 13 6.688 13.128C6.688 13.2347 6.688 13.352 6.688 13.48V14.024L6.496 30.632V30.952C6.496 31.016 6.48533 31.1013 6.464 31.208C6.464 31.2933 6.45333 31.4 6.432 31.528C6.38933 31.6347 6.34667 31.752 6.304 31.88C6.28267 31.9867 6.25067 32.104 6.208 32.232C6.144 32.3387 6.06933 32.4453 5.984 32.552C5.92 32.6373 5.83467 32.7227 5.728 32.808C5.55733 32.9787 5.28 33.096 4.896 33.16C4.32 33.288 3.776 33.2347 3.264 33C3.008 32.8293 2.82667 32.616 2.72 32.36C2.656 32.296 2.624 32.232 2.624 32.168C2.60267 32.1253 2.58133 32.0933 2.56 32.072C2.53867 32.0507 2.51733 32.0187 2.496 31.976C2.45333 31.8693 2.42133 31.7627 2.4 31.656C2.37867 31.528 2.368 31.4 2.368 31.272C2.34667 31.1653 2.32533 31.0587 2.304 30.952C2.304 30.8453 2.29333 30.7387 2.272 30.632C2.25067 30.4613 2.25067 30.28 2.272 30.088V29.608ZM10.2808 21.576C10.2808 21.0853 10.2701 20.5627 10.2488 20.008C10.2488 19.4533 10.3448 18.952 10.5368 18.504C10.7074 18.0987 10.9848 17.8107 11.3688 17.64C11.7741 17.448 12.1688 17.4053 12.5528 17.512C12.9368 17.576 13.2354 17.6933 13.4488 17.864C13.6621 18.0347 13.8114 18.2373 13.8968 18.472C14.0034 18.6853 14.0674 18.9413 14.0888 19.24C14.1101 19.5173 14.1314 19.7947 14.1528 20.072C14.3661 19.688 14.6328 19.3787 14.9528 19.144C15.2728 18.9093 15.6034 18.7173 15.9448 18.568C16.2861 18.4187 16.6061 18.312 16.9048 18.248C17.2248 18.184 17.4701 18.152 17.6408 18.152C18.4514 18.152 19.2514 18.3333 20.0408 18.696C20.8514 19.0373 21.5234 19.528 22.0568 20.168C22.3554 20.552 22.5794 20.9573 22.7288 21.384C22.8994 21.7893 23.0168 22.216 23.0808 22.664C23.1661 23.112 23.2194 23.5707 23.2408 24.04C23.2621 24.488 23.2834 24.9467 23.3048 25.416C23.4114 26.7813 23.4114 28.136 23.3048 29.48C23.2834 29.7573 23.2728 30.0773 23.2728 30.44C23.2728 30.8027 23.2408 31.1653 23.1768 31.528C23.1341 31.8693 23.0381 32.1787 22.8888 32.456C22.7608 32.712 22.5368 32.872 22.2168 32.936C21.7688 33.0427 21.3954 33.064 21.0968 33C20.8194 32.9573 20.5954 32.8613 20.4248 32.712C20.2541 32.5627 20.1261 32.3707 20.0408 32.136C19.9554 31.9013 19.8808 31.6347 19.8168 31.336C19.7741 31.1013 19.7314 30.8347 19.6888 30.536C19.6674 30.216 19.6461 29.896 19.6248 29.576C19.6248 29.256 19.6141 28.9467 19.5928 28.648C19.5928 28.328 19.5928 28.04 19.5928 27.784C19.5928 27.3787 19.5821 26.9307 19.5608 26.44C19.5394 25.9493 19.5394 25.4907 19.5608 25.064C19.5608 24.0613 19.2941 23.304 18.7608 22.792C18.2488 22.2587 17.5448 22.0347 16.6488 22.12C15.9661 22.2053 15.3688 22.4827 14.8568 22.952C14.3448 23.4 14.0994 23.9867 14.1208 24.712C14.1208 24.9893 14.1208 25.2453 14.1208 25.48C14.1208 25.7147 14.1101 25.9493 14.0888 26.184C14.0888 26.4187 14.0888 26.6747 14.0888 26.952C14.0888 27.2293 14.0888 27.5387 14.0888 27.88C14.0888 28.584 14.0888 29.3307 14.0888 30.12C14.0888 30.888 13.9928 31.5173 13.8008 32.008C13.6301 32.52 13.3421 32.872 12.9368 33.064C12.5314 33.256 12.0514 33.2027 11.4968 32.904C11.2621 32.776 11.0701 32.6053 10.9208 32.392C10.7928 32.1573 10.6861 31.912 10.6008 31.656C10.5368 31.4 10.4941 31.144 10.4728 30.888C10.4514 30.6107 10.4301 30.3547 10.4088 30.12C10.3448 29.416 10.3021 28.7653 10.2808 28.168C10.2808 27.5493 10.2808 26.888 10.2808 26.184V21.576ZM37.8715 20.68C38.0422 20.9787 38.1275 21.2987 38.1275 21.64C38.1488 21.9813 38.0742 22.3013 37.9035 22.6C37.7115 22.984 37.4342 23.2507 37.0715 23.4C36.7302 23.528 36.3462 23.5387 35.9195 23.432C35.7275 23.3893 35.5568 23.3147 35.4075 23.208C35.2582 23.1013 35.0982 22.9947 34.9275 22.888C34.7782 22.76 34.5968 22.6427 34.3835 22.536C34.1915 22.4293 33.9355 22.3547 33.6155 22.312C33.2955 22.2693 32.9435 22.2693 32.5595 22.312C32.1968 22.3547 31.8662 22.44 31.5675 22.568C31.0982 22.8027 30.7248 23.1653 30.4475 23.656C30.1702 24.1253 29.9888 24.6373 29.9035 25.192C29.8182 25.7253 29.8288 26.2693 29.9355 26.824C30.0635 27.3787 30.2982 27.848 30.6395 28.232C30.8955 28.5307 31.2262 28.776 31.6315 28.968C32.0582 29.16 32.4635 29.2773 32.8475 29.32C33.2102 29.3627 33.5728 29.3627 33.9355 29.32C34.2982 29.256 34.6502 29.1707 34.9915 29.064C35.2475 28.9573 35.5355 28.8187 35.8555 28.648C36.1755 28.456 36.4848 28.3387 36.7835 28.296C37.1675 28.296 37.4662 28.4027 37.6795 28.616C37.8928 28.808 38.0422 29.0533 38.1275 29.352C38.2128 29.6293 38.2235 29.928 38.1595 30.248C38.1168 30.568 37.9995 30.8453 37.8075 31.08C37.5515 31.4 37.1888 31.7093 36.7195 32.008C36.2502 32.2853 35.8022 32.488 35.3755 32.616C34.8635 32.7867 34.2875 32.8827 33.6475 32.904C33.0288 32.9253 32.4422 32.904 31.8875 32.84C31.6315 32.7973 31.3648 32.744 31.0875 32.68C30.8102 32.616 30.5435 32.5413 30.2875 32.456C29.3488 32.1147 28.5595 31.6347 27.9195 31.016C27.3008 30.376 26.8208 29.6613 26.4795 28.872C26.1595 28.0827 25.9782 27.24 25.9355 26.344C25.8928 25.448 25.9995 24.5627 26.2555 23.688C26.4902 22.856 26.7782 22.152 27.1195 21.576C27.4822 21 27.8982 20.5307 28.3675 20.168C28.8582 19.784 29.4022 19.4853 29.9995 19.272C30.5968 19.0373 31.2582 18.8347 31.9835 18.664C32.7302 18.5147 33.5195 18.5147 34.3515 18.664C35.1835 18.8133 35.9302 19.0907 36.5915 19.496C37.1035 19.7733 37.5302 20.168 37.8715 20.68ZM44.8768 18.536C45.5808 18.1947 46.3168 17.9493 47.0848 17.8C47.8528 17.6507 48.6101 17.6187 49.3568 17.704C50.1248 17.7893 50.8608 17.992 51.5648 18.312C52.2901 18.632 52.9514 19.08 53.5488 19.656C54.0394 20.1467 54.4661 20.744 54.8288 21.448C55.1914 22.1307 55.4581 22.8027 55.6287 23.464C55.9914 24.6373 56.0448 25.8213 55.7888 27.016C55.5328 28.2107 55.0954 29.32 54.4768 30.344C54.1781 30.8133 53.8048 31.24 53.3568 31.624C52.9301 31.9867 52.4714 32.2853 51.9808 32.52C51.3408 32.8187 50.6474 33.0213 49.9008 33.128C49.1541 33.256 48.4288 33.288 47.7248 33.224C46.4448 33.16 45.3141 32.84 44.3328 32.264C43.3728 31.688 42.5941 30.952 41.9968 30.056C41.4208 29.16 41.0368 28.1467 40.8448 27.016C40.6741 25.864 40.7488 24.6907 41.0688 23.496C41.4101 22.216 41.9008 21.1813 42.5408 20.392C43.2021 19.5813 43.9808 18.9627 44.8768 18.536ZM45.8368 22.824C45.5168 23.1227 45.2714 23.496 45.1008 23.944C44.9301 24.392 44.8234 24.8613 44.7808 25.352C44.7381 25.8213 44.7701 26.3013 44.8768 26.792C45.0048 27.2613 45.1968 27.688 45.4528 28.072C45.6661 28.392 46.0501 28.6587 46.6048 28.872C47.1594 29.0853 47.7354 29.2133 48.3328 29.256C49.0154 29.2987 49.6128 29.1173 50.1248 28.712C50.6368 28.2853 51.0208 27.7627 51.2768 27.144C51.5541 26.5253 51.6821 25.8533 51.6608 25.128C51.6394 24.4027 51.4474 23.7413 51.0848 23.144C50.8288 22.7173 50.4661 22.408 49.9968 22.216C49.5488 22.0027 49.0688 21.896 48.5568 21.896C48.0661 21.8747 47.5754 21.9493 47.0848 22.12C46.5941 22.2693 46.1781 22.504 45.8368 22.824ZM75.8428 25.544C75.8854 26.2267 75.9068 26.8773 75.9068 27.496C75.9068 28.0933 75.8854 28.7333 75.8428 29.416C75.8428 29.672 75.8428 29.96 75.8428 30.28C75.8428 30.6 75.8214 30.9093 75.7788 31.208C75.7361 31.5067 75.6614 31.784 75.5548 32.04C75.4481 32.296 75.2881 32.4987 75.0748 32.648C74.8188 32.8187 74.5308 32.936 74.2108 33C73.8908 33.0427 73.5921 33.0213 73.3148 32.936C73.0374 32.8507 72.7921 32.6907 72.5788 32.456C72.3868 32.2213 72.2801 31.8907 72.2588 31.464C72.1948 30.4827 72.1628 29.5013 72.1628 28.52C72.1628 28.0293 72.1521 27.56 72.1308 27.112C72.1308 26.664 72.1414 26.0347 72.1628 25.224C72.1628 24.8187 72.1308 24.36 72.0668 23.848C72.0028 23.3147 71.8428 22.9413 71.5868 22.728C71.3948 22.5573 71.1814 22.4613 70.9468 22.44C70.7121 22.3973 70.4774 22.4187 70.2428 22.504C70.0294 22.5893 69.8374 22.7493 69.6668 22.984C69.4961 23.1973 69.3788 23.4747 69.3148 23.816C69.3148 24.0933 69.3041 24.3813 69.2828 24.68C69.2828 24.9573 69.2934 25.224 69.3148 25.48C69.3361 26.1627 69.3468 26.8133 69.3468 27.432C69.3468 28.0293 69.3361 28.6693 69.3148 29.352C69.2934 29.6293 69.2828 29.928 69.2828 30.248C69.3041 30.568 69.3041 30.888 69.2828 31.208C69.2614 31.5067 69.1974 31.784 69.0908 32.04C69.0054 32.296 68.8454 32.4987 68.6108 32.648C68.3548 32.8187 68.0774 32.9253 67.7788 32.968C67.5014 32.9893 67.2348 32.9467 66.9788 32.84C66.7441 32.712 66.5308 32.52 66.3388 32.264C66.1681 32.008 66.0721 31.6667 66.0508 31.24C66.0081 30.7493 65.9761 30.3013 65.9548 29.896C65.9548 29.4693 65.9548 29.0213 65.9548 28.552C65.9548 28.0613 65.9654 27.56 65.9868 27.048C66.0081 26.5147 65.9974 26.0027 65.9548 25.512C65.9548 25.3627 65.9441 25.192 65.9228 25C65.9228 24.7867 65.9121 24.5733 65.8908 24.36C65.8908 24.1467 65.8694 23.944 65.8268 23.752C65.8054 23.5387 65.7628 23.368 65.6988 23.24C65.5281 22.9413 65.2188 22.7493 64.7708 22.664C64.3441 22.5787 63.9814 22.6107 63.6828 22.76C63.3841 22.9093 63.1601 23.1013 63.0108 23.336C62.8614 23.5707 62.7548 23.8267 62.6908 24.104C62.6268 24.3813 62.5948 24.68 62.5948 25C62.5948 25.2987 62.5948 25.5867 62.5948 25.864C62.5948 27.2507 62.5948 28.456 62.5948 29.48C62.6161 30.4827 62.5094 31.2933 62.2748 31.912C62.1681 32.232 61.9441 32.4773 61.6028 32.648C61.2828 32.8187 60.9308 32.904 60.5468 32.904C60.1841 32.904 59.8428 32.8187 59.5228 32.648C59.2028 32.4773 58.9894 32.2107 58.8828 31.848C58.8188 31.6133 58.7548 31.2827 58.6908 30.856C58.6481 30.408 58.6161 29.9173 58.5948 29.384C58.5734 28.8507 58.5628 28.3173 58.5628 27.784C58.5628 27.2293 58.5628 26.728 58.5628 26.28V21.672C58.5414 21.1813 58.5308 20.648 58.5308 20.072C58.5308 19.496 58.6161 18.9733 58.7868 18.504C58.9361 18.0987 59.1708 17.8427 59.4908 17.736C59.8108 17.608 60.1414 17.5547 60.4828 17.576C60.8668 17.576 61.1654 17.6827 61.3788 17.896C61.6134 18.088 61.7841 18.3333 61.8908 18.632C61.9974 18.9093 62.0614 19.2293 62.0828 19.592C62.1041 19.9333 62.1254 20.264 62.1468 20.584C62.3814 20.0507 62.6588 19.6133 62.9788 19.272C63.3201 18.9093 63.8001 18.6747 64.4188 18.568C65.9974 18.2693 67.2561 18.6747 68.1948 19.784C68.6214 19.3573 69.1654 19.0053 69.8268 18.728C70.3388 18.536 70.8614 18.4507 71.3948 18.472C71.9281 18.472 72.4294 18.568 72.8988 18.76C73.3894 18.952 73.8268 19.2293 74.2108 19.592C74.6161 19.9547 74.9361 20.392 75.1708 20.904C75.4908 21.5867 75.6721 22.344 75.7148 23.176C75.7574 24.008 75.8001 24.7973 75.8428 25.544ZM89.5395 28.616C89.7955 28.552 90.0515 28.5093 90.3075 28.488C90.5848 28.4667 90.8302 28.4987 91.0435 28.584C91.2782 28.6693 91.4702 28.8187 91.6195 29.032C91.7688 29.224 91.8435 29.5013 91.8435 29.864C91.8435 30.12 91.7795 30.3653 91.6515 30.6C91.5235 30.8347 91.3635 31.048 91.1715 31.24C90.9795 31.432 90.7662 31.6027 90.5315 31.752C90.2968 31.88 90.0728 31.9867 89.8595 32.072C89.2408 32.3493 88.5262 32.5627 87.7155 32.712C86.9262 32.8613 86.1048 32.9147 85.2515 32.872C84.0995 32.8293 82.9902 32.6053 81.9235 32.2C80.8782 31.7733 80.0568 31.08 79.4595 30.12C78.9048 29.1813 78.5742 28.136 78.4675 26.984C78.3608 25.832 78.4142 24.744 78.6275 23.72C78.8622 22.4827 79.2568 21.48 79.8115 20.712C80.3875 19.9227 81.0702 19.2933 81.8595 18.824C82.8195 18.2693 83.8968 17.9813 85.0915 17.96C86.2862 17.9387 87.4275 18.1733 88.5155 18.664C89.2408 18.984 89.8915 19.4213 90.4675 19.976C91.0435 20.5093 91.4808 21.16 91.7795 21.928C91.8648 22.12 91.9288 22.3547 91.9715 22.632C92.0355 22.9093 92.0782 23.208 92.0995 23.528C92.1208 23.8267 92.1208 24.1253 92.0995 24.424C92.0782 24.7227 92.0248 24.9893 91.9395 25.224C91.8115 25.608 91.6515 25.9067 91.4595 26.12C91.2675 26.3333 91.0222 26.4933 90.7235 26.6C90.4248 26.7067 90.0622 26.7813 89.6355 26.824C89.2302 26.8453 88.7395 26.8667 88.1635 26.888C87.6515 26.9093 87.1715 26.92 86.7235 26.92C86.2755 26.92 85.8168 26.92 85.3475 26.92C84.8782 26.8987 84.3875 26.888 83.8755 26.888C83.3848 26.8667 82.8302 26.8453 82.2115 26.824C82.1475 27.2507 82.2008 27.624 82.3715 27.944C82.5635 28.2427 82.8195 28.4987 83.1395 28.712C83.4595 28.904 83.8222 29.0533 84.2275 29.16C84.6328 29.2667 85.0275 29.3307 85.4115 29.352C86.1368 29.3947 86.8302 29.3413 87.4915 29.192C88.1528 29.0213 88.8355 28.8293 89.5395 28.616ZM88.1635 22.408C87.7582 21.9387 87.3315 21.5973 86.8835 21.384C86.5422 21.2347 86.1795 21.1707 85.7955 21.192C85.4328 21.192 85.0808 21.2453 84.7395 21.352C84.1208 21.5013 83.5982 21.8213 83.1715 22.312C83.1288 22.3547 83.0542 22.4613 82.9475 22.632C82.8408 22.7813 82.7342 22.9413 82.6275 23.112C82.5422 23.2827 82.4782 23.4427 82.4355 23.592C82.3928 23.7413 82.4142 23.816 82.4995 23.816H88.7715C88.7502 23.5173 88.6968 23.272 88.6115 23.08C88.5262 22.8667 88.3768 22.6427 88.1635 22.408ZM111.614 25.384C111.614 26.024 111.582 26.6747 111.518 27.336C111.454 27.976 111.326 28.6053 111.134 29.224C110.942 29.8213 110.654 30.3973 110.27 30.952C109.886 31.4853 109.364 31.9547 108.702 32.36C108.382 32.5733 107.998 32.7547 107.55 32.904C107.124 33.032 106.665 33.1387 106.174 33.224C105.705 33.3307 105.236 33.3947 104.766 33.416C104.297 33.4587 103.86 33.4693 103.454 33.448C101.534 33.384 99.9769 32.9253 98.7823 32.072C97.6089 31.1973 96.7023 30.12 96.0623 28.84C95.4436 27.56 95.0383 26.1733 94.8463 24.68C94.6756 23.1653 94.6436 21.7253 94.7503 20.36C94.8143 19.5493 94.9529 18.6747 95.1663 17.736C95.4009 16.7973 95.7316 15.8907 96.1583 15.016C96.6063 14.1413 97.1503 13.352 97.7903 12.648C98.4516 11.944 99.2303 11.4107 100.126 11.048C100.958 10.7067 101.865 10.4933 102.846 10.408C103.849 10.3013 104.83 10.3333 105.79 10.504C106.772 10.6747 107.678 10.984 108.51 11.432C109.364 11.88 110.036 12.4773 110.526 13.224C110.868 13.7787 111.134 14.4507 111.326 15.24C111.518 16.0293 111.55 16.7867 111.422 17.512C111.316 18.152 111.092 18.6 110.75 18.856C110.409 19.0907 110.036 19.1867 109.63 19.144C109.225 19.08 108.83 18.9093 108.446 18.632C108.084 18.3333 107.838 17.96 107.71 17.512C107.561 17.0213 107.38 16.5733 107.166 16.168C106.953 15.7413 106.622 15.3893 106.174 15.112C105.662 14.792 105.118 14.6107 104.542 14.568C103.988 14.5253 103.444 14.5893 102.91 14.76C102.398 14.9307 101.908 15.1973 101.438 15.56C100.99 15.9227 100.617 16.3387 100.318 16.808C99.9556 17.3413 99.6783 17.928 99.4863 18.568C99.2943 19.1867 99.1556 19.8373 99.0703 20.52C98.9849 21.1813 98.9529 21.8533 98.9743 22.536C99.0169 23.1973 99.1023 23.8373 99.2303 24.456C99.4649 25.5013 99.8276 26.4827 100.318 27.4C100.51 27.7413 100.766 28.0507 101.086 28.328C101.428 28.584 101.801 28.7973 102.206 28.968C102.612 29.1173 103.038 29.2133 103.486 29.256C103.934 29.2987 104.361 29.2667 104.766 29.16C105.342 29.0107 105.812 28.8187 106.174 28.584C106.537 28.328 106.825 28.0293 107.038 27.688C107.252 27.3467 107.39 26.9733 107.454 26.568C107.54 26.1627 107.582 25.736 107.582 25.288V25.256C107.305 25.256 107.06 25.256 106.846 25.256C106.633 25.2347 106.473 25.224 106.366 25.224C105.897 25.224 105.438 25.1387 104.99 24.968C104.606 24.84 104.318 24.6373 104.126 24.36C103.913 24.1253 103.806 23.8373 103.806 23.496C103.806 23.368 103.806 23.2507 103.806 23.144C103.828 23.016 103.849 22.888 103.87 22.76C103.934 22.5893 104.073 22.376 104.286 22.12C104.414 22.0133 104.617 21.928 104.894 21.864C105.022 21.8213 105.15 21.7893 105.278 21.768C105.406 21.7253 105.556 21.6933 105.726 21.672C105.854 21.6507 105.993 21.64 106.142 21.64C106.292 21.64 106.441 21.64 106.59 21.64H109.502C109.737 21.6187 110.004 21.6507 110.302 21.736C110.622 21.8 110.868 21.9067 111.038 22.056C111.102 22.1413 111.166 22.2267 111.23 22.312C111.294 22.3973 111.348 22.4933 111.39 22.6C111.476 22.8347 111.529 23.0693 111.55 23.304C111.572 23.432 111.582 23.5707 111.582 23.72C111.604 23.848 111.614 23.9653 111.614 24.072V25.384ZM114.218 21.672C114.218 21.416 114.218 21.128 114.218 20.808C114.218 20.4667 114.229 20.1253 114.25 19.784C114.272 19.4213 114.304 19.08 114.346 18.76C114.41 18.4187 114.496 18.12 114.602 17.864C114.773 17.48 115.04 17.224 115.402 17.096C115.765 16.9467 116.16 16.8827 116.586 16.904C117.034 16.904 117.386 16.9787 117.642 17.128C117.898 17.2773 118.09 17.48 118.218 17.736C118.346 17.9707 118.421 18.248 118.442 18.568C118.485 18.8667 118.506 19.1867 118.506 19.528C118.698 19.1867 118.954 18.9093 119.274 18.696C119.616 18.4827 119.957 18.312 120.298 18.184C120.64 18.056 120.949 17.9707 121.226 17.928C121.504 17.864 121.664 17.832 121.706 17.832C122.24 17.7893 122.72 17.7787 123.146 17.8C123.594 17.8213 124.085 17.9173 124.618 18.088C124.96 18.216 125.312 18.3973 125.674 18.632C126.037 18.8453 126.357 19.1013 126.634 19.4C126.912 19.6987 127.093 20.0293 127.178 20.392C127.285 20.7333 127.242 21.096 127.05 21.48C126.752 22.0133 126.421 22.28 126.058 22.28C125.696 22.2587 125.301 22.1947 124.874 22.088C124.64 22.0453 124.362 21.9493 124.042 21.8C123.722 21.6507 123.445 21.5547 123.21 21.512C122.485 21.4053 121.845 21.4587 121.29 21.672C120.736 21.8853 120.256 22.1413 119.85 22.44C119.381 22.8027 118.976 23.2187 118.634 23.688V28.296C118.634 28.872 118.624 29.4693 118.602 30.088C118.602 30.7067 118.517 31.272 118.346 31.784C118.197 32.2747 117.93 32.68 117.546 33C117.184 33.2987 116.65 33.4267 115.946 33.384C115.562 33.3627 115.221 33.1813 114.922 32.84C114.624 32.4773 114.442 32.1253 114.378 31.784C114.336 31.464 114.304 31.08 114.282 30.632C114.261 30.184 114.24 29.7147 114.218 29.224C114.218 28.7333 114.218 28.2427 114.218 27.752C114.218 27.24 114.218 26.7707 114.218 26.344V21.672ZM132.564 18.536C133.268 18.1947 134.004 17.9493 134.772 17.8C135.54 17.6507 136.298 17.6187 137.044 17.704C137.812 17.7893 138.548 17.992 139.252 18.312C139.978 18.632 140.639 19.08 141.236 19.656C141.727 20.1467 142.154 20.744 142.516 21.448C142.879 22.1307 143.146 22.8027 143.316 23.464C143.679 24.6373 143.732 25.8213 143.476 27.016C143.22 28.2107 142.783 29.32 142.164 30.344C141.866 30.8133 141.492 31.24 141.044 31.624C140.618 31.9867 140.159 32.2853 139.668 32.52C139.028 32.8187 138.335 33.0213 137.588 33.128C136.842 33.256 136.116 33.288 135.412 33.224C134.132 33.16 133.002 32.84 132.02 32.264C131.06 31.688 130.282 30.952 129.684 30.056C129.108 29.16 128.724 28.1467 128.532 27.016C128.362 25.864 128.436 24.6907 128.756 23.496C129.098 22.216 129.588 21.1813 130.228 20.392C130.89 19.5813 131.668 18.9627 132.564 18.536ZM133.524 22.824C133.204 23.1227 132.959 23.496 132.788 23.944C132.618 24.392 132.511 24.8613 132.468 25.352C132.426 25.8213 132.458 26.3013 132.564 26.792C132.692 27.2613 132.884 27.688 133.14 28.072C133.354 28.392 133.738 28.6587 134.292 28.872C134.847 29.0853 135.423 29.2133 136.02 29.256C136.703 29.2987 137.3 29.1173 137.812 28.712C138.324 28.2853 138.708 27.7627 138.964 27.144C139.242 26.5253 139.37 25.8533 139.348 25.128C139.327 24.4027 139.135 23.7413 138.772 23.144C138.516 22.7173 138.154 22.408 137.684 22.216C137.236 22.0027 136.756 21.896 136.244 21.896C135.754 21.8747 135.263 21.9493 134.772 22.12C134.282 22.2693 133.866 22.504 133.524 22.824ZM164.842 18.6C165.034 18.8773 165.098 19.3147 165.034 19.912C164.992 20.488 164.885 21.1173 164.714 21.8C164.544 22.4613 164.341 23.1227 164.106 23.784C163.872 24.424 163.68 24.9573 163.53 25.384C163.168 26.3653 162.848 27.2827 162.57 28.136C162.293 28.9893 161.962 29.928 161.578 30.952C161.45 31.2507 161.322 31.5493 161.194 31.848C161.088 32.1467 160.949 32.4133 160.778 32.648C160.629 32.8827 160.437 33.0747 160.202 33.224C159.989 33.3733 159.722 33.448 159.402 33.448C159.04 33.448 158.72 33.32 158.442 33.064C158.186 32.808 157.962 32.488 157.77 32.104C157.6 31.72 157.45 31.3147 157.322 30.888C157.194 30.4613 157.088 30.088 157.002 29.768C156.725 28.8293 156.48 27.976 156.266 27.208C156.053 26.4187 155.861 25.7147 155.69 25.096C155.498 25.7147 155.306 26.3867 155.114 27.112C154.922 27.8373 154.677 28.6587 154.378 29.576C154.293 29.896 154.186 30.2907 154.058 30.76C153.93 31.208 153.77 31.6347 153.578 32.04C153.408 32.4453 153.184 32.7867 152.906 33.064C152.65 33.3627 152.341 33.4907 151.978 33.448C151.466 33.4267 151.018 33.224 150.634 32.84C150.272 32.4347 149.952 31.9547 149.674 31.4C149.418 30.8453 149.194 30.2693 149.002 29.672C148.81 29.0747 148.65 28.552 148.522 28.104C148.352 27.528 148.149 26.888 147.914 26.184C147.68 25.48 147.445 24.7653 147.21 24.04C146.997 23.2933 146.794 22.5573 146.602 21.832C146.41 21.0853 146.282 20.4027 146.218 19.784C146.176 19.3787 146.25 19.0053 146.442 18.664C146.656 18.3227 146.922 18.088 147.242 17.96C147.584 17.8107 147.946 17.7787 148.33 17.864C148.736 17.9493 149.098 18.2053 149.418 18.632C149.589 18.8453 149.738 19.112 149.866 19.432C150.016 19.752 150.144 20.104 150.25 20.488C150.357 20.8507 150.464 21.224 150.57 21.608C150.677 21.992 150.784 22.3653 150.89 22.728C151.125 23.5387 151.317 24.1787 151.466 24.648C151.637 25.096 151.808 25.5653 151.978 26.056C152.128 25.5653 152.277 25.096 152.426 24.648C152.597 24.1787 152.8 23.5387 153.034 22.728C153.12 22.472 153.216 22.184 153.322 21.864C153.45 21.5227 153.578 21.2027 153.706 20.904C153.856 20.6053 154.016 20.328 154.186 20.072C154.378 19.7947 154.581 19.592 154.794 19.464C155.264 19.144 155.69 19.0693 156.074 19.24C156.458 19.3893 156.789 19.656 157.066 20.04C157.344 20.424 157.578 20.872 157.77 21.384C157.984 21.8747 158.154 22.3227 158.282 22.728C158.41 23.1547 158.528 23.528 158.634 23.848C158.741 24.1467 158.837 24.424 158.922 24.68C159.008 24.936 159.082 25.1813 159.146 25.416C159.232 25.6507 159.317 25.896 159.402 26.152C159.488 25.896 159.562 25.6507 159.626 25.416C159.712 25.1813 159.797 24.936 159.882 24.68C159.968 24.424 160.064 24.1467 160.17 23.848C160.277 23.528 160.394 23.1547 160.522 22.728C160.608 22.4507 160.693 22.1307 160.778 21.768C160.885 21.4053 160.992 21.0427 161.098 20.68C161.205 20.296 161.312 19.9333 161.418 19.592C161.546 19.2507 161.685 18.9627 161.834 18.728C161.984 18.4933 162.186 18.3013 162.442 18.152C162.698 17.9813 162.965 17.8853 163.242 17.864C163.52 17.8213 163.797 17.8533 164.074 17.96C164.373 18.0667 164.629 18.28 164.842 18.6Z" fill="#374151"/>
</svg>
