<svg width="173" height="48" viewBox="0 0 173 48" fill="none" xmlns="http://www.w3.org/2000/svg">
<path d="M5.45312 37H2.60938V16.4688H5.45312V37ZM10.25 37V21.7188H11.8906C12.0885 21.7188 12.25 21.7656 12.375 21.8594C12.5 21.9427 12.5729 22.0833 12.5938 22.2812L12.8281 23.9062C13.4844 23.1771 14.2188 22.5938 15.0312 22.1562C15.8438 21.7083 16.7812 21.4844 17.8438 21.4844C18.6771 21.4844 19.4062 21.625 20.0312 21.9062C20.6667 22.1771 21.1979 22.5677 21.625 23.0781C22.0521 23.5781 22.375 24.1875 22.5938 24.9062C22.8125 25.6146 22.9219 26.401 22.9219 27.2656V37H20.1719V27.2656C20.1719 26.1302 19.9115 25.2448 19.3906 24.6094C18.8802 23.974 18.099 23.6562 17.0469 23.6562C16.2656 23.6562 15.5365 23.8438 14.8594 24.2188C14.1823 24.5833 13.5625 25.0938 13 25.75V37H10.25ZM36.8906 24.4688C36.8073 24.5833 36.724 24.6719 36.6406 24.7344C36.5677 24.7865 36.4583 24.8125 36.3125 24.8125C36.1562 24.8125 35.9948 24.75 35.8281 24.625C35.6615 24.5 35.4531 24.3646 35.2031 24.2188C34.9531 24.0625 34.6458 23.9219 34.2812 23.7969C33.9271 23.6719 33.4896 23.6094 32.9688 23.6094C32.2812 23.6094 31.6719 23.7448 31.1406 24.0156C30.6198 24.276 30.1823 24.6562 29.8281 25.1562C29.4844 25.6458 29.2188 26.2448 29.0312 26.9531C28.8542 27.6615 28.7656 28.4583 28.7656 29.3438C28.7656 30.2604 28.8594 31.0781 29.0469 31.7969C29.2448 32.5052 29.5208 33.1042 29.875 33.5938C30.2292 34.0833 30.6562 34.4583 31.1562 34.7188C31.6562 34.9688 32.2188 35.0938 32.8438 35.0938C33.4479 35.0938 33.9427 35.0156 34.3281 34.8594C34.7135 34.7031 35.0365 34.5312 35.2969 34.3438C35.5573 34.1562 35.7708 33.9844 35.9375 33.8281C36.1146 33.6719 36.2969 33.5938 36.4844 33.5938C36.6927 33.5938 36.8594 33.6823 36.9844 33.8594L37.7812 34.8594C37.4479 35.2656 37.0781 35.6198 36.6719 35.9219C36.2656 36.2135 35.8281 36.4583 35.3594 36.6562C34.8906 36.8438 34.401 36.9844 33.8906 37.0781C33.3906 37.1719 32.8802 37.2188 32.3594 37.2188C31.4635 37.2188 30.625 37.0417 29.8438 36.6875C29.0625 36.3333 28.3802 35.8229 27.7969 35.1562C27.224 34.4792 26.7708 33.6562 26.4375 32.6875C26.1146 31.7083 25.9531 30.5938 25.9531 29.3438C25.9531 28.2083 26.1042 27.1615 26.4062 26.2031C26.7083 25.2344 27.1458 24.401 27.7188 23.7031C28.3021 23.0052 29.0156 22.4635 29.8594 22.0781C30.7135 21.6823 31.6927 21.4844 32.7969 21.4844C33.8385 21.4844 34.75 21.6615 35.5312 22.0156C36.3125 22.3594 37.0052 22.8438 37.6094 23.4688L36.8906 24.4688ZM46.5781 21.4844C47.6927 21.4844 48.6979 21.6719 49.5938 22.0469C50.4896 22.4115 51.25 22.9375 51.875 23.625C52.5 24.3021 52.9792 25.125 53.3125 26.0938C53.6562 27.0625 53.8281 28.1458 53.8281 29.3438C53.8281 30.5521 53.6562 31.6406 53.3125 32.6094C52.9792 33.5781 52.5 34.4062 51.875 35.0938C51.25 35.7708 50.4896 36.2969 49.5938 36.6719C48.6979 37.0365 47.6927 37.2188 46.5781 37.2188C45.4635 37.2188 44.4531 37.0365 43.5469 36.6719C42.651 36.2969 41.8854 35.7708 41.25 35.0938C40.625 34.4062 40.1406 33.5781 39.7969 32.6094C39.4635 31.6406 39.2969 30.5521 39.2969 29.3438C39.2969 28.1458 39.4635 27.0625 39.7969 26.0938C40.1406 25.125 40.625 24.3021 41.25 23.625C41.8854 22.9375 42.651 22.4115 43.5469 22.0469C44.4531 21.6719 45.4635 21.4844 46.5781 21.4844ZM46.5781 35.0781C47.3177 35.0781 47.9635 34.9531 48.5156 34.7031C49.0677 34.4427 49.526 34.0677 49.8906 33.5781C50.2656 33.0885 50.5417 32.4896 50.7188 31.7812C50.9062 31.0729 51 30.2656 51 29.3594C51 28.4531 50.9062 27.6458 50.7188 26.9375C50.5417 26.2292 50.2656 25.6302 49.8906 25.1406C49.526 24.651 49.0677 24.276 48.5156 24.0156C47.9635 23.7552 47.3177 23.625 46.5781 23.625C45.8281 23.625 45.1719 23.7552 44.6094 24.0156C44.0573 24.276 43.5938 24.651 43.2188 25.1406C42.8542 25.6302 42.5781 26.2292 42.3906 26.9375C42.2135 27.6458 42.125 28.4531 42.125 29.3594C42.125 30.2656 42.2135 31.0729 42.3906 31.7812C42.5781 32.4896 42.8542 33.0885 43.2188 33.5781C43.5938 34.0677 44.0573 34.4427 44.6094 34.7031C45.1719 34.9531 45.8281 35.0781 46.5781 35.0781ZM57.2969 37V21.7188H58.9219C59.1302 21.7188 59.2917 21.7656 59.4062 21.8594C59.5312 21.9427 59.6042 22.0833 59.625 22.2812L59.8594 23.8438C60.151 23.5 60.4531 23.1875 60.7656 22.9062C61.0885 22.6146 61.4323 22.3646 61.7969 22.1562C62.1615 21.9375 62.5521 21.7708 62.9688 21.6562C63.3854 21.5417 63.8281 21.4844 64.2969 21.4844C65.349 21.4844 66.2031 21.7708 66.8594 22.3438C67.526 22.9167 68 23.6875 68.2812 24.6562C68.5 24.0938 68.7865 23.6146 69.1406 23.2188C69.5052 22.8229 69.9062 22.4948 70.3438 22.2344C70.7812 21.974 71.25 21.7865 71.75 21.6719C72.25 21.5469 72.7604 21.4844 73.2812 21.4844C74.9479 21.4844 76.2344 21.9844 77.1406 22.9844C78.0573 23.9844 78.5156 25.4115 78.5156 27.2656V37H75.7656V27.2656C75.7656 26.0781 75.4948 25.1823 74.9531 24.5781C74.4115 23.9635 73.6354 23.6562 72.625 23.6562C72.1667 23.6562 71.7344 23.7344 71.3281 23.8906C70.9219 24.0365 70.5625 24.2656 70.25 24.5781C69.9479 24.8802 69.7031 25.2552 69.5156 25.7031C69.3385 26.151 69.25 26.6719 69.25 27.2656V37H66.5V27.2656C66.5 26.0469 66.2448 25.1406 65.7344 24.5469C65.2344 23.9531 64.4948 23.6562 63.5156 23.6562C62.849 23.6562 62.224 23.8333 61.6406 24.1875C61.0573 24.5312 60.526 25.0104 60.0469 25.625V37H57.2969ZM88.9219 21.4844C89.8385 21.4844 90.6875 21.6354 91.4688 21.9375C92.25 22.2396 92.9271 22.6823 93.5 23.2656C94.0729 23.849 94.5208 24.5625 94.8438 25.4062C95.1667 26.25 95.3281 27.2188 95.3281 28.3125C95.3281 28.7396 95.2812 29.026 95.1875 29.1719C95.0938 29.3073 94.9219 29.375 94.6719 29.375H84.4531C84.474 30.3333 84.6042 31.1719 84.8438 31.8906C85.0833 32.599 85.4115 33.1875 85.8281 33.6562C86.2552 34.125 86.7604 34.4792 87.3438 34.7188C87.9271 34.9479 88.5781 35.0625 89.2969 35.0625C89.9635 35.0625 90.5417 34.9896 91.0312 34.8438C91.5208 34.6875 91.9375 34.5156 92.2812 34.3281C92.6354 34.1406 92.9323 33.974 93.1719 33.8281C93.4115 33.6719 93.6198 33.5938 93.7969 33.5938C93.9115 33.5938 94.0104 33.6198 94.0938 33.6719C94.1771 33.7135 94.25 33.776 94.3125 33.8594L95.0938 34.8594C94.75 35.2656 94.3438 35.6198 93.875 35.9219C93.4167 36.2135 92.9219 36.4583 92.3906 36.6562C91.8594 36.8438 91.3073 36.9844 90.7344 37.0781C90.1719 37.1719 89.6146 37.2188 89.0625 37.2188C88 37.2188 87.0208 37.0417 86.125 36.6875C85.2292 36.3333 84.4531 35.8125 83.7969 35.125C83.151 34.4271 82.6458 33.5729 82.2812 32.5625C81.9167 31.5417 81.7344 30.3698 81.7344 29.0469C81.7344 27.9844 81.8958 26.9948 82.2188 26.0781C82.5521 25.151 83.026 24.349 83.6406 23.6719C84.2656 22.9844 85.0208 22.4479 85.9062 22.0625C86.8021 21.6771 87.8073 21.4844 88.9219 21.4844ZM88.9688 23.4844C87.6875 23.4844 86.6719 23.8594 85.9219 24.6094C85.1823 25.3594 84.7188 26.3854 84.5312 27.6875H92.8594C92.8594 27.0729 92.7708 26.5104 92.5938 26C92.4167 25.4792 92.1615 25.0365 91.8281 24.6719C91.4948 24.2969 91.0833 24.0052 90.5938 23.7969C90.1146 23.5885 89.5729 23.4844 88.9688 23.4844ZM104.86 40.48C103.473 40.48 102.207 40.08 101.06 39.28C99.94 38.5067 99.0467 37.3867 98.38 35.92C97.7133 34.4267 97.38 32.64 97.38 30.56C97.38 28.5067 97.7 26.4267 98.34 24.32C98.98 22.2133 99.8467 20.2 100.94 18.28C102.06 16.36 103.327 14.6533 104.74 13.16C106.153 11.64 107.633 10.44 109.18 9.56C110.753 8.68 112.3 8.24 113.82 8.24C114.833 8.24 115.647 8.45333 116.26 8.88C116.873 9.30667 117.313 9.86667 117.58 10.56C117.847 11.2267 117.98 11.96 117.98 12.76C117.98 13.6933 117.82 14.6133 117.5 15.52C117.18 16.4 116.753 17.1333 116.22 17.72C115.687 18.3067 115.1 18.6 114.46 18.6C114.247 18.6 114.02 18.5333 113.78 18.4C113.567 18.2667 113.38 18.0267 113.22 17.68C113.593 17.4133 114.02 16.9333 114.5 16.24C115.007 15.5467 115.433 14.7733 115.78 13.92C116.153 13.0667 116.34 12.28 116.34 11.56C116.34 10.9467 116.153 10.44 115.78 10.04C115.433 9.64 114.82 9.44 113.94 9.44C112.793 9.44 111.593 9.90667 110.34 10.84C109.113 11.7733 107.913 13.0267 106.74 14.6C105.593 16.1467 104.553 17.88 103.62 19.8C102.687 21.72 101.94 23.68 101.38 25.68C100.847 27.68 100.58 29.5733 100.58 31.36C100.58 33.7867 101.087 35.68 102.1 37.04C103.113 38.4267 104.393 39.12 105.94 39.12C106.98 39.12 107.967 38.7333 108.9 37.96C109.833 37.2133 110.66 36.24 111.38 35.04C112.1 33.8133 112.673 32.4933 113.1 31.08C113.553 29.6667 113.833 28.3067 113.94 27C112.953 26.7867 112.153 26.6533 111.54 26.6C110.927 26.52 110.353 26.48 109.82 26.48C109.473 26.48 109.1 26.4933 108.7 26.52C108.327 26.52 107.887 26.52 107.38 26.52C107.567 25.7467 107.887 25.2133 108.34 24.92C108.82 24.6 109.407 24.44 110.1 24.44C110.847 24.44 111.62 24.5733 112.42 24.84C113.247 25.08 114.047 25.3467 114.82 25.64C115.593 25.9333 116.273 26.16 116.86 26.32L116.58 27.6C116.073 28.9333 115.66 30.1067 115.34 31.12C115.02 32.1067 114.767 32.9867 114.58 33.76C114.42 34.5067 114.3 35.1733 114.22 35.76C114.167 36.3467 114.14 36.88 114.14 37.36C114.14 37.8933 114.153 38.4133 114.18 38.92C114.233 39.4267 114.273 39.9467 114.3 40.48C113.873 40.2933 113.487 40.0667 113.14 39.8C112.82 39.56 112.567 39.2533 112.38 38.88C112.22 38.5067 112.14 38.08 112.14 37.6C112.14 37.3067 112.153 37.0133 112.18 36.72C112.233 36.4267 112.313 36.1067 112.42 35.76C111.46 37.0933 110.353 38.2133 109.1 39.12C107.847 40.0267 106.433 40.48 104.86 40.48ZM125.256 38.04C124.349 38.04 123.629 37.8 123.096 37.32C122.589 36.84 122.336 36.2133 122.336 35.44C122.336 34.64 122.523 33.8 122.896 32.92C123.269 32.04 123.629 31.1733 123.976 30.32C124.349 29.44 124.536 28.6533 124.536 27.96C124.536 27.1067 124.283 26.48 123.776 26.08C123.296 25.6533 122.803 25.2667 122.296 24.92C121.683 26.4933 121.043 27.9867 120.376 29.4C119.709 30.8133 119.163 31.88 118.736 32.6L118.376 31.92C118.749 31.2267 119.229 30.2133 119.816 28.88C120.429 27.5467 121.029 26.0267 121.616 24.32C121.349 24.0533 121.216 23.7333 121.216 23.36C121.216 22.56 121.443 21.9067 121.896 21.4C122.349 20.8933 122.683 20.64 122.896 20.64C123.189 20.64 123.349 20.7733 123.376 21.04C123.429 21.28 123.456 21.4667 123.456 21.6C123.456 21.7333 123.376 22 123.216 22.4C123.083 22.7733 123.016 23 123.016 23.08C123.016 23.4533 123.216 23.8 123.616 24.12C124.043 24.4133 124.523 24.76 125.056 25.16C125.589 25.5333 126.056 26 126.456 26.56C126.883 27.0933 127.096 27.7867 127.096 28.64C127.096 29.44 126.923 30.2533 126.576 31.08C126.256 31.9067 125.923 32.6933 125.576 33.44C125.256 34.1867 125.096 34.84 125.096 35.4C125.096 35.88 125.216 36.2 125.456 36.36C125.696 36.52 125.976 36.6 126.296 36.6C126.936 36.6 127.589 36.4 128.256 36C128.949 35.6 129.616 35.0933 130.256 34.48C130.896 33.8667 131.469 33.2267 131.976 32.56C132.483 31.8667 132.856 31.2267 133.096 30.64L133.616 31.04C133.109 32.16 132.416 33.2667 131.536 34.36C130.656 35.4267 129.669 36.3067 128.576 37C127.509 37.6933 126.403 38.04 125.256 38.04ZM135.002 38.28C133.856 38.28 133.042 37.92 132.562 37.2C132.082 36.5067 131.842 35.6533 131.842 34.64C131.842 33.8133 131.976 32.96 132.242 32.08C132.509 31.2 132.856 30.3733 133.282 29.6C133.736 28.8267 134.229 28.2 134.762 27.72C135.322 27.24 135.882 27 136.442 27C136.576 27 136.709 27.0267 136.842 27.08C137.002 27.1067 137.149 27.1467 137.282 27.2C137.042 27.4133 136.749 27.8133 136.402 28.4C136.082 28.96 135.776 29.6133 135.482 30.36C135.189 31.08 134.936 31.8 134.722 32.52C134.536 33.24 134.442 33.8533 134.442 34.36C134.442 35.16 134.576 35.7467 134.842 36.12C135.109 36.4667 135.456 36.64 135.882 36.64C136.442 36.64 137.109 36.3467 137.882 35.76C138.656 35.1467 139.416 34.3733 140.162 33.44C139.416 32.8267 138.829 32.0267 138.402 31.04C138.002 30.0267 137.802 29 137.802 27.96C137.802 27.08 137.949 26.2533 138.242 25.48C138.562 24.7067 139.016 24.0933 139.602 23.64C140.189 23.16 140.896 22.92 141.722 22.92C142.816 22.92 143.549 23.2133 143.922 23.8C144.296 24.3867 144.482 25.12 144.482 26C144.482 27.04 144.229 28.2 143.722 29.48C143.216 30.7333 142.576 31.9467 141.802 33.12C142.282 33.3867 142.789 33.52 143.322 33.52C143.749 33.52 144.229 33.44 144.762 33.28C145.296 33.0933 145.816 32.7867 146.322 32.36C146.856 31.9333 147.282 31.36 147.602 30.64L148.082 31.04C147.549 32.2933 146.789 33.1867 145.802 33.72C144.842 34.2267 143.922 34.48 143.042 34.48C142.696 34.48 142.362 34.4533 142.042 34.4C141.722 34.32 141.416 34.2133 141.122 34.08C140.216 35.28 139.216 36.28 138.122 37.08C137.056 37.88 136.016 38.28 135.002 38.28ZM140.882 32.4C141.549 31.4133 142.096 30.3867 142.522 29.32C142.976 28.2267 143.202 27.2 143.202 26.24C143.202 25.4667 143.082 24.9067 142.842 24.56C142.629 24.1867 142.349 24 142.002 24C141.469 24 140.922 24.3867 140.362 25.16C139.802 25.9333 139.522 26.9067 139.522 28.08C139.522 28.8533 139.629 29.64 139.842 30.44C140.082 31.2133 140.429 31.8667 140.882 32.4ZM158.132 38.56C157.305 38.56 156.732 38.1733 156.412 37.4C156.118 36.6533 155.972 35.7467 155.972 34.68C155.972 34.1467 155.998 33.5733 156.052 32.96C156.105 32.32 156.172 31.6933 156.252 31.08C155.665 32.2533 155.025 33.3867 154.332 34.48C153.665 35.5733 152.958 36.4667 152.212 37.16C151.465 37.8533 150.678 38.2 149.852 38.2C148.972 38.2 148.252 37.8 147.692 37C147.132 36.2 146.852 35.2533 146.852 34.16C146.852 33.3867 146.972 32.4933 147.212 31.48C147.478 30.4667 147.798 29.4667 148.172 28.48C148.545 27.4933 148.932 26.68 149.332 26.04C149.732 25.4 150.078 25.08 150.372 25.08C150.505 25.08 150.785 25.16 151.212 25.32C151.638 25.4533 151.852 25.64 151.852 25.88C151.558 26.3333 151.198 27.0267 150.772 27.96C150.345 28.8933 149.972 29.9067 149.652 31C149.332 32.0667 149.172 33.04 149.172 33.92C149.172 34.1333 149.198 34.4667 149.252 34.92C149.305 35.3467 149.425 35.7333 149.612 36.08C149.825 36.4267 150.145 36.6 150.572 36.6C151.185 36.6 151.838 36.2133 152.532 35.44C153.225 34.6667 153.918 33.6933 154.612 32.52C155.305 31.3467 155.958 30.16 156.572 28.96C156.785 27.8667 156.958 27.0667 157.092 26.56C157.252 26.0533 157.412 25.7333 157.572 25.6C157.732 25.44 157.932 25.36 158.172 25.36C158.518 25.36 158.798 25.44 159.012 25.6C159.225 25.7333 159.332 25.9467 159.332 26.24C159.332 26.2933 159.318 26.36 159.292 26.44C159.292 26.52 159.278 26.6 159.252 26.68C159.065 27.32 158.878 28.1333 158.692 29.12C158.532 30.08 158.398 31.08 158.292 32.12C158.185 33.16 158.132 34.1333 158.132 35.04C158.132 35.6533 158.198 36.1333 158.332 36.48C158.465 36.8267 158.692 37 159.012 37C159.412 37 159.878 36.76 160.412 36.28C160.945 35.7733 161.492 35.12 162.052 34.32C162.638 33.4933 163.198 32.6 163.732 31.64C164.292 30.68 164.785 29.7333 165.212 28.8C165.212 27.4133 165.305 26.36 165.492 25.64C165.705 24.8933 165.958 24.3867 166.252 24.12C166.572 23.8533 166.892 23.72 167.212 23.72C167.718 23.72 168.078 23.9067 168.292 24.28C168.532 24.6267 168.652 24.9467 168.652 25.24C168.652 25.4267 168.612 25.6267 168.532 25.84C168.452 26.0267 168.345 26.24 168.212 26.48C167.998 26.88 167.785 27.4 167.572 28.04C167.358 28.6533 167.252 29.5067 167.252 30.6C167.252 31.0267 167.292 31.48 167.372 31.96C167.452 32.44 167.625 32.84 167.892 33.16C168.158 33.48 168.572 33.64 169.132 33.64C169.692 33.64 170.225 33.4267 170.732 33C171.265 32.5467 171.785 31.7733 172.292 30.68L172.812 31.08C172.225 32.4133 171.572 33.3067 170.852 33.76C170.158 34.2133 169.492 34.44 168.852 34.44C168.025 34.44 167.318 34.16 166.732 33.6C166.172 33.04 165.758 32.2 165.492 31.08C164.825 32.3067 164.078 33.4933 163.252 34.64C162.425 35.7867 161.572 36.72 160.692 37.44C159.812 38.1867 158.958 38.56 158.132 38.56Z" fill="white"/>
<path d="M133.872 22.14C133.275 22.14 132.705 22.0467 132.164 21.86C131.623 21.6733 131.151 21.412 130.75 21.076C130.349 20.74 130.055 20.3527 129.868 19.914C129.775 19.718 129.775 19.536 129.868 19.368C129.971 19.2 130.139 19.0927 130.372 19.046C130.54 19.0087 130.703 19.0367 130.862 19.13C131.03 19.214 131.156 19.3447 131.24 19.522C131.352 19.7553 131.534 19.97 131.786 20.166C132.047 20.362 132.36 20.5207 132.724 20.642C133.088 20.7633 133.471 20.824 133.872 20.824C134.32 20.824 134.731 20.754 135.104 20.614C135.487 20.474 135.795 20.2733 136.028 20.012C136.261 19.7413 136.378 19.41 136.378 19.018C136.378 18.5233 136.182 18.08 135.79 17.688C135.407 17.296 134.773 17.0533 133.886 16.96C132.729 16.848 131.819 16.5073 131.156 15.938C130.493 15.3687 130.162 14.664 130.162 13.824C130.162 13.208 130.335 12.6853 130.68 12.256C131.025 11.8267 131.492 11.5 132.08 11.276C132.677 11.052 133.34 10.94 134.068 10.94C134.637 10.94 135.132 11.0193 135.552 11.178C135.981 11.3367 136.355 11.556 136.672 11.836C136.989 12.116 137.265 12.4473 137.498 12.83C137.629 13.0353 137.68 13.2313 137.652 13.418C137.633 13.5953 137.545 13.7353 137.386 13.838C137.209 13.95 137.017 13.9733 136.812 13.908C136.607 13.8427 136.453 13.7213 136.35 13.544C136.201 13.2733 136.019 13.0447 135.804 12.858C135.589 12.6713 135.337 12.5267 135.048 12.424C134.759 12.312 134.418 12.256 134.026 12.256C133.335 12.2467 132.757 12.3773 132.29 12.648C131.823 12.9093 131.59 13.3153 131.59 13.866C131.59 14.146 131.66 14.4167 131.8 14.678C131.949 14.93 132.215 15.1493 132.598 15.336C132.99 15.5227 133.55 15.6533 134.278 15.728C135.389 15.84 136.252 16.1807 136.868 16.75C137.493 17.31 137.806 18.052 137.806 18.976C137.806 19.508 137.694 19.97 137.47 20.362C137.255 20.754 136.961 21.0853 136.588 21.356C136.224 21.6173 135.804 21.8133 135.328 21.944C134.861 22.0747 134.376 22.14 133.872 22.14ZM142.685 22C142.218 22 141.798 21.8833 141.425 21.65C141.051 21.4073 140.757 21.0807 140.543 20.67C140.328 20.2593 140.221 19.7973 140.221 19.284V12.606C140.221 12.4007 140.286 12.2327 140.417 12.102C140.547 11.9713 140.715 11.906 140.921 11.906C141.126 11.906 141.294 11.9713 141.425 12.102C141.555 12.2327 141.621 12.4007 141.621 12.606V19.284C141.621 19.6573 141.723 19.97 141.929 20.222C142.134 20.474 142.386 20.6 142.685 20.6H143.161C143.329 20.6 143.469 20.6653 143.581 20.796C143.702 20.9267 143.763 21.0947 143.763 21.3C143.763 21.5053 143.683 21.6733 143.525 21.804C143.375 21.9347 143.179 22 142.937 22H142.685ZM139.577 15.826C139.381 15.826 139.222 15.77 139.101 15.658C138.979 15.546 138.919 15.406 138.919 15.238C138.919 15.0513 138.979 14.902 139.101 14.79C139.222 14.678 139.381 14.622 139.577 14.622H142.811C143.007 14.622 143.165 14.678 143.287 14.79C143.408 14.902 143.469 15.0513 143.469 15.238C143.469 15.406 143.408 15.546 143.287 15.658C143.165 15.77 143.007 15.826 142.811 15.826H139.577ZM148.99 22.056C148.234 22.056 147.566 21.8927 146.988 21.566C146.409 21.23 145.952 20.7727 145.616 20.194C145.289 19.606 145.126 18.934 145.126 18.178C145.126 17.4127 145.289 16.7407 145.616 16.162C145.952 15.574 146.409 15.1167 146.988 14.79C147.566 14.454 148.234 14.286 148.99 14.286C149.736 14.286 150.399 14.454 150.978 14.79C151.556 15.1167 152.009 15.574 152.336 16.162C152.672 16.7407 152.84 17.4127 152.84 18.178C152.84 18.934 152.676 19.606 152.35 20.194C152.023 20.7727 151.57 21.23 150.992 21.566C150.413 21.8927 149.746 22.056 148.99 22.056ZM148.99 20.796C149.475 20.796 149.904 20.684 150.278 20.46C150.651 20.236 150.94 19.928 151.146 19.536C151.36 19.144 151.468 18.6913 151.468 18.178C151.468 17.6647 151.36 17.212 151.146 16.82C150.94 16.4187 150.651 16.106 150.278 15.882C149.904 15.658 149.475 15.546 148.99 15.546C148.504 15.546 148.075 15.658 147.702 15.882C147.328 16.106 147.034 16.4187 146.82 16.82C146.605 17.212 146.498 17.6647 146.498 18.178C146.498 18.6913 146.605 19.144 146.82 19.536C147.034 19.928 147.328 20.236 147.702 20.46C148.075 20.684 148.504 20.796 148.99 20.796ZM158.437 22.056C157.69 22.056 157.023 21.888 156.435 21.552C155.856 21.2067 155.399 20.7447 155.063 20.166C154.736 19.578 154.573 18.9153 154.573 18.178C154.573 17.422 154.736 16.75 155.063 16.162C155.39 15.574 155.838 15.1167 156.407 14.79C156.976 14.454 157.63 14.286 158.367 14.286C158.918 14.286 159.422 14.3933 159.879 14.608C160.336 14.8133 160.747 15.126 161.111 15.546C161.242 15.6953 161.288 15.8493 161.251 16.008C161.214 16.1667 161.111 16.3067 160.943 16.428C160.812 16.5213 160.668 16.554 160.509 16.526C160.35 16.4887 160.206 16.4047 160.075 16.274C159.618 15.7887 159.048 15.546 158.367 15.546C157.891 15.546 157.471 15.658 157.107 15.882C156.743 16.0967 156.458 16.4 156.253 16.792C156.048 17.184 155.945 17.646 155.945 18.178C155.945 18.682 156.048 19.13 156.253 19.522C156.468 19.914 156.762 20.2267 157.135 20.46C157.508 20.684 157.942 20.796 158.437 20.796C158.764 20.796 159.048 20.7587 159.291 20.684C159.543 20.6 159.772 20.474 159.977 20.306C160.126 20.1847 160.28 20.1193 160.439 20.11C160.598 20.0913 160.738 20.1333 160.859 20.236C161.018 20.3667 161.106 20.516 161.125 20.684C161.144 20.8427 161.088 20.9873 160.957 21.118C160.285 21.7433 159.445 22.056 158.437 22.056ZM164.717 19.2L163.849 18.248L168.147 14.412C168.287 14.2813 168.441 14.2207 168.609 14.23C168.787 14.2393 168.936 14.314 169.057 14.454C169.188 14.594 169.249 14.748 169.239 14.916C169.23 15.084 169.155 15.2333 169.015 15.364L164.717 19.2ZM164.059 22C163.854 22 163.686 21.9393 163.555 21.818C163.434 21.6873 163.373 21.5193 163.373 21.314V11.752C163.373 11.5467 163.434 11.3833 163.555 11.262C163.686 11.1313 163.854 11.066 164.059 11.066C164.265 11.066 164.428 11.1313 164.549 11.262C164.68 11.3833 164.745 11.5467 164.745 11.752V21.314C164.745 21.5193 164.68 21.6873 164.549 21.818C164.428 21.9393 164.265 22 164.059 22ZM169.057 21.93C168.908 22.0513 168.74 22.1027 168.553 22.084C168.376 22.0747 168.227 21.9953 168.105 21.846L165.263 18.332L166.243 17.408L169.155 20.992C169.277 21.1413 169.328 21.3047 169.309 21.482C169.3 21.65 169.216 21.7993 169.057 21.93Z" fill="#EE8002"/>
</svg>
